<svg width="24" height="18" viewBox="0 0 24 18" fill="none" xmlns="http://www.w3.org/2000/svg">
<path d="M3.78947 0H20.2105C21.2156 0 22.1794 0.379285 22.8901 1.05442C23.6008 1.72955 24 2.64522 24 3.6V14.4C24 15.3548 23.6008 16.2705 22.8901 16.9456C22.1794 17.6207 21.2156 18 20.2105 18H3.78947C2.78444 18 1.82058 17.6207 1.10991 16.9456C0.399247 16.2705 0 15.3548 0 14.4V3.6C0 2.64522 0.399247 1.72955 1.10991 1.05442C1.82058 0.379285 2.78444 0 3.78947 0ZM3.78947 1.2C3.15789 1.2 2.60211 1.404 2.17263 1.764L12 7.8L21.8274 1.764C21.3979 1.404 20.8421 1.2 20.2105 1.2H3.78947ZM12 9.252L1.42737 2.736C1.32632 3 1.26316 3.3 1.26316 3.6V14.4C1.26316 15.0365 1.52932 15.647 2.0031 16.0971C2.47687 16.5471 3.11945 16.8 3.78947 16.8H20.2105C20.8805 16.8 21.5231 16.5471 21.9969 16.0971C22.4707 15.647 22.7368 15.0365 22.7368 14.4V3.6C22.7368 3.3 22.6737 3 22.5726 2.736L12 9.252Z" fill="#80828D"/>
</svg>
