<svg width="37" height="36" viewBox="0 0 37 36" fill="none" xmlns="http://www.w3.org/2000/svg">
<rect width="36" height="36" transform="translate(0.75)" fill="white"/>
<path d="M33.4583 15.0623H32.25V15H18.75V21H27.2273C25.9905 24.4928 22.6672 27 18.75 27C13.7797 27 9.75 22.9702 9.75 18C9.75 13.0297 13.7797 9 18.75 9C21.0443 9 23.1315 9.8655 24.7208 11.2792L28.9635 7.0365C26.2845 4.53975 22.701 3 18.75 3C10.4662 3 3.75 9.71625 3.75 18C3.75 26.2838 10.4662 33 18.75 33C27.0338 33 33.75 26.2838 33.75 18C33.75 16.9943 33.6465 16.0125 33.4583 15.0623Z" fill="#FFC107"/>
<path d="M5.47961 11.0182L10.4079 14.6325C11.7414 11.331 14.9709 9 18.7501 9C21.0444 9 23.1316 9.8655 24.7209 11.2792L28.9636 7.0365C26.2846 4.53975 22.7011 3 18.7501 3C12.9886 3 7.99211 6.25275 5.47961 11.0182Z" fill="#FF3D00"/>
<path d="M18.7499 33C22.6244 33 26.1449 31.5173 28.8066 29.106L24.1641 25.1775C22.6075 26.3613 20.7055 27.0016 18.7499 27C14.8484 27 11.5356 24.5123 10.2876 21.0405L5.39612 24.8093C7.87862 29.667 12.9201 33 18.7499 33Z" fill="#4CAF50"/>
<path d="M33.4583 15.0623H32.25V15H18.75V21H27.2273C26.6357 22.6623 25.57 24.1149 24.162 25.1782L24.1642 25.1768L28.8068 29.1052C28.4783 29.4037 33.75 25.5 33.75 18C33.75 16.9943 33.6465 16.0125 33.4583 15.0623Z" fill="#1976D2"/>
</svg>
