<svg width="22" height="22" viewBox="0 0 22 22" fill="none" xmlns="http://www.w3.org/2000/svg">
<path fill-rule="evenodd" clip-rule="evenodd" d="M4.25 7V8.303C4.02333 8.31833 3.80933 8.33967 3.608 8.367C2.708 8.487 1.95 8.747 1.348 9.348C0.746 9.95 0.488 10.708 0.367 11.608C0.25 12.475 0.25 13.578 0.25 14.945V15.055C0.25 16.422 0.25 17.525 0.367 18.392C0.487 19.292 0.747 20.05 1.348 20.652C1.95 21.254 2.708 21.512 3.608 21.634C4.475 21.75 5.578 21.75 6.945 21.75H15.055C16.422 21.75 17.525 21.75 18.392 21.634C19.292 21.512 20.05 21.254 20.652 20.652C21.254 20.05 21.512 19.292 21.634 18.392C21.75 17.525 21.75 16.422 21.75 15.055V14.945C21.75 13.578 21.75 12.475 21.634 11.608C21.512 10.708 21.254 9.95 20.652 9.348C20.05 8.746 19.292 8.488 18.392 8.367C18.1787 8.33877 17.9646 8.31742 17.75 8.303V7C17.75 5.20979 17.0388 3.4929 15.773 2.22703C14.5071 0.961159 12.7902 0.25 11 0.25C9.20979 0.25 7.4929 0.961159 6.22703 2.22703C4.96116 3.4929 4.25 5.20979 4.25 7ZM11 1.75C9.60761 1.75 8.27225 2.30312 7.28769 3.28769C6.30312 4.27225 5.75 5.60761 5.75 7V8.253C6.12333 8.25033 6.52167 8.24933 6.945 8.25H15.055C15.4783 8.25 15.8767 8.251 16.25 8.253V7C16.25 4.1 13.9 1.75 11 1.75ZM3.808 9.853C3.074 9.952 2.686 10.133 2.409 10.409C2.132 10.686 1.952 11.074 1.853 11.809C1.752 12.564 1.75 13.565 1.75 15C1.75 16.435 1.752 17.436 1.853 18.192C1.952 18.926 2.133 19.314 2.409 19.591C2.686 19.868 3.074 20.048 3.809 20.147C4.563 20.248 5.565 20.25 7 20.25H15C16.435 20.25 17.436 20.248 18.192 20.147C18.926 20.048 19.314 19.867 19.591 19.591C19.868 19.314 20.048 18.926 20.147 18.191C20.248 17.436 20.25 16.435 20.25 15C20.25 13.565 20.248 12.563 20.147 11.808C20.048 11.074 19.867 10.686 19.591 10.409C19.314 10.132 18.926 9.952 18.191 9.853C17.436 9.752 16.435 9.75 15 9.75H7C5.565 9.75 4.563 9.752 3.808 9.853Z" fill="#80828D"/>
</svg>
