<svg width="36" height="36" viewBox="0 0 36 36" fill="none" xmlns="http://www.w3.org/2000/svg">
<path fill-rule="evenodd" clip-rule="evenodd" d="M18 0C8.05501 0 6.18583e-06 8.25894 6.18583e-06 18.4557C-0.00312739 22.3304 1.18435 26.1076 3.39383 29.2509C5.60331 32.3943 8.72247 34.744 12.3084 35.9665C13.2084 36.1271 13.545 35.5734 13.545 35.0881C13.545 34.6507 13.5216 33.1982 13.5216 31.6516C9 32.5061 7.83001 30.5221 7.47001 29.483C7.2666 28.9515 6.39001 27.3145 5.62501 26.8752C4.99501 26.5301 4.09501 25.6756 5.6016 25.6535C7.02 25.6295 8.0316 26.9915 8.37 27.5452C9.99 30.3357 12.5784 29.5513 13.6116 29.0678C13.77 27.8682 14.2416 27.0617 14.76 26.6003C10.755 26.1389 6.57 24.5461 6.57 17.4868C6.57 15.4788 7.2666 13.8197 8.415 12.5278C8.235 12.0664 7.60501 10.1746 8.59501 7.63699C8.59501 7.63699 10.1016 7.1516 13.545 9.52685C15.0105 9.11094 16.5244 8.9017 18.045 8.90489C19.575 8.90489 21.105 9.1116 22.545 9.52685C25.9866 7.12761 27.495 7.63699 27.495 7.63699C28.485 10.1746 27.855 12.0664 27.675 12.5278C28.8216 13.8197 29.52 15.4567 29.52 17.4868C29.52 24.5701 25.3134 26.1389 21.3084 26.6003C21.96 27.1761 22.5234 28.2834 22.5234 30.0146C22.5234 32.4821 22.5 34.4661 22.5 35.0899C22.5 35.5734 22.8384 36.1493 23.7384 35.9647C27.3109 34.7268 30.4151 32.372 32.6145 29.2313C34.8139 26.0907 35.9979 22.3222 36 18.4557C36 8.25894 27.945 0 18 0Z" fill="black"/>
</svg>
